HIERARCHY
ROOT Bip001_Pelvis
{
  OFFSET 34.4345 95.6767 -26.8758
  CHANNELS 6 Xposition Yposition Zposition Zrotation Xrotation Yrotation
  JOINT Bip001_Spine
  {
    OFFSET 1.4188e-005 10.2191 -0.0116013
    CHANNELS 3 Zrotation Xrotation Yrotation
    JOINT Bip001_L_Thigh
    {
      OFFSET 11.0458 -10.2192 0.0116197
      CHANNELS 3 Zrotation Xrotation Yrotation
      JOINT Bip001_L_Calf
      {
        OFFSET -0.707118 -44.0221 0.360014
        CHANNELS 3 Zrotation Xrotation Yrotation
        JOINT Bip001_L_Foot
        {
          OFFSET -0.651902 -40.5938 -3.56146
          CHANNELS 3 Zrotation Xrotation Yrotation
          JOINT Bip001_L_Toe0
          {
            OFFSET 0.0530839 -10.2181 13.1504
            CHANNELS 3 Zrotation Xrotation Yrotation
            End Site
            {
              OFFSET -1.02532e-005 0 7.55606
            }
          }
        }
      }
    }
    JOINT Bip001_R_Thigh
    {
      OFFSET -11.0458 -10.2191 0.0115893
      CHANNELS 3 Zrotation Xrotation Yrotation
      JOINT Bip001_R_Calf
      {
        OFFSET 0.706994 -44.0221 0.35984
        CHANNELS 3 Zrotation Xrotation Yrotation
        JOINT Bip001_R_Foot
        {
          OFFSET 0.651786 -40.5938 -3.5613
          CHANNELS 3 Zrotation Xrotation Yrotation
          JOINT Bip001_R_Toe0
          {
            OFFSET -0.0531479 -10.2181 13.1504
            CHANNELS 3 Zrotation Xrotation Yrotation
            End Site
            {
              OFFSET -1.02894e-005 0 7.55606
            }
          }
        }
      }
    }
    JOINT Bip001_Spine1
    {
      OFFSET 1.87041e-005 14.5736 1.08638
      CHANNELS 3 Zrotation Xrotation Yrotation
      JOINT Bip001_Spine2
      {
        OFFSET 2.24614e-005 14.5058 -1.69078
        CHANNELS 3 Zrotation Xrotation Yrotation
        JOINT Bip001_Neck
        {
          OFFSET 2.20278e-005 15.3945 -0.489414
          CHANNELS 3 Zrotation Xrotation Yrotation
          JOINT Bip001_L_Clavicle
          {
            OFFSET 6.06036 -0.000579998 0.00836775
            CHANNELS 3 Zrotation Xrotation Yrotation
            JOINT Bip001_L_UpperArm
            {
              OFFSET 11.5509 -0.0600302 0.00193952
              CHANNELS 3 Zrotation Xrotation Yrotation
              JOINT Bip001_L_Forearm
              {
                OFFSET 25.9523 0.0806089 -2.15551
                CHANNELS 3 Zrotation Xrotation Yrotation
                JOINT Bip001_L_Hand
                {
                  OFFSET 32.2475 0.153767 1.63968
                  CHANNELS 3 Zrotation Xrotation Yrotation
                  JOINT Bip001_L_Finger0
                  {
                    OFFSET 6.04639 -2.20976 5.90322
                    CHANNELS 3 Zrotation Xrotation Yrotation
                    End Site
                    {
                      OFFSET 4.22375 -1.43895 0.606485
                    }
                  }
                  JOINT Bip001_L_Finger1
                  {
                    OFFSET 11.0826 -0.704819 -0.198153
                    CHANNELS 3 Zrotation Xrotation Yrotation
                    End Site
                    {
                      OFFSET 6.20027 -0.397518 -0.0787166
                    }
                  }
                }
              }
            }
          }
          JOINT Bip001_R_Clavicle
          {
            OFFSET -6.06037 -0.000563197 0.00835105
            CHANNELS 3 Zrotation Xrotation Yrotation
            JOINT Bip001_R_UpperArm
            {
              OFFSET -11.5509 -0.0599978 0.00190698
              CHANNELS 3 Zrotation Xrotation Yrotation
              JOINT Bip001_R_Forearm
              {
                OFFSET -25.9523 0.0806822 -2.15589
                CHANNELS 3 Zrotation Xrotation Yrotation
                JOINT Bip001_R_Hand
                {
                  OFFSET -32.2475 0.153859 1.63989
                  CHANNELS 3 Zrotation Xrotation Yrotation
                  JOINT Bip001_R_Finger0
                  {
                    OFFSET -6.04641 -2.20976 5.90317
                    CHANNELS 3 Zrotation Xrotation Yrotation
                    End Site
                    {
                      OFFSET -4.22376 -1.43895 0.60647
                    }
                  }
                  JOINT Bip001_R_Finger1
                  {
                    OFFSET -11.0826 -0.704794 -0.198182
                    CHANNELS 3 Zrotation Xrotation Yrotation
                    End Site
                    {
                      OFFSET -6.20028 -0.397504 -0.0787333
                    }
                  }
                }
              }
            }
          }
          JOINT Bip001_Head
          {
            OFFSET 1.09673e-005 11.2744 2.05948
            CHANNELS 3 Zrotation Xrotation Yrotation
            End Site
            {
              OFFSET 2.89576e-005 20.8808 -2.77728e-005
            }
          }
        }
      }
    }
  }
}
MOTION
Frames:	9
Frame Time:	0.04
33.7166 95.106 -30.3778 -2.05256 1.45187 11.7185 0.0706894 2.30014 -0.189158 7.86628 -12.2531 3.0194 -1.33832 18.2038 -4.12706 3.53939 -7.49701 0.0689105 1.44069 -4.87849 -0.824764 -2.86259 -3.98875 -0.653455 1.73117 10.9145 -1.23332 -9.2459 -7.15581 -8.65756 3.25302 -10.6019 3.32458 0.140358 4.60004 -0.381938 0.146195 4.60005 -0.381482 4.12028 -7.56334 -4.12567 -27.7074 8.05722 -0.418159 -50.8367 36.1275 1.92037 16.8584 -4.13499 -32.7996 10.008 0.820073 -5.38582 3.18055e-015 -3.18055e-015 -0 -0 0 3.18055e-015 14.3626 14.2366 21.2339 42.1442 -54.3236 8.6131 -49.9211 -9.84078 107.766 -36.6524 -4.70416 -1.0963 -0 0 3.97569e-016 -0 0 7.95139e-016 -6.88212 6.89139 -1.05522 
33.49 95.1213 -30.6075 -2.54659 2.29504 14.7252 -0.0793894 2.40046 -0.0365431 8.47971 -14.4018 1.6488 -2.05285 18.5298 -5.22593 3.4337 -7.2844 0.0637234 1.47288 -4.68064 -0.975492 -2.25577 -4.5089 -0.616645 2.0867 10.389 -1.57326 -9.83888 -6.40426 -11.0553 3.28357 -10.635 3.26787 -0.157455 4.80095 -0.0700171 -0.157457 4.80097 -0.0699465 4.84129 -8.82904 -5.77882 -28.6011 8.51667 0.930556 -49.5686 34.604 1.74235 16.086 -4.64314 -34.8913 11.623 0.709999 -5.55783 -9.54166e-015 3.18055e-015 9.54166e-015 -7.95139e-015 3.18056e-015 6.36111e-015 13.1354 16.2695 24.3929 43.7481 -49.072 19.122 -49.1915 -6.32638 102.492 -36.6059 -6.56202 -0.981309 -0 0 1.59028e-015 3.18055e-015 0 1.59028e-015 -6.92668 8.39876 -2.38728 
33.1656 95.084 -30.8284 -3.0447 2.99432 17.5636 -0.248007 2.53285 0.0344316 8.82489 -16.5349 3.27022 -1.1429 19.184 -9.41415 2.53558 -7.51247 0.0564186 1.26129 -4.13833 -0.896806 -1.63263 -5.33204 -0.254203 2.50067 10.4907 -2.02285 -10.4175 -5.90185 -13.6261 3.24093 -10.5891 3.32303 -0.499121 5.06545 0.0834396 -0.498555 5.06546 0.0817599 7.20764 -7.8536 -7.4014 -30.1721 6.77948 1.05949 -49.5176 32.7039 2.73858 14.8553 -5.78452 -36.6454 13.7715 0.52166 -6.1034 -6.36111e-015 6.36111e-015 9.54166e-015 -4.77083e-015 0 9.54166e-015 10.1007 15.6652 27.7015 52.0721 -47.557 34.5406 -52.8402 -1.79455 95.0248 -43.961 -11.1625 -2.83133 -3.18055e-015 -3.18055e-015 7.95139e-016 -4.77083e-015 -6.36111e-015 1.59028e-015 -8.43879 7.8405 -2.98183 
32.9914 95.1024 -31.111 -3.30675 3.69971 19.5741 -0.305765 2.65435 -0.0658846 8.53759 -18.0631 3.97022 -0.341611 19.07 -12.0851 2.40605 -7.00236 0.0392735 1.16457 -3.94523 -0.874067 -1.57509 -6.39156 -0.271846 2.79547 10.8468 -2.51575 -10.7585 -5.62927 -15.3104 3.20367 -10.7754 3.74661 -0.6075 5.30969 -0.119761 -0.60854 5.30963 -0.118811 9.54011 -6.59462 -8.68889 -31.6197 4.74584 1.34411 -50.2514 32.7113 4.78799 13.3306 -7.40273 -37.9296 14.6326 0.247141 -6.02323 9.54166e-015 -6.36111e-015 3.18055e-015 7.95139e-015 -6.36111e-015 3.18055e-015 8.69389 13.4929 24.7855 67.5766 -50.5962 47.8586 -48.8022 -3.37424 96.9929 -29.4766 -11.0637 0.216991 -6.36111e-015 -3.18055e-015 -0 -3.18055e-015 -3.18056e-015 -3.18055e-015 -10.6755 6.94539 -3.07945 
33.191 95.2853 -31.2145 -2.65504 3.95722 18.0533 -0.471732 2.6468 -0.566826 8.02214 -16.8623 5.86422 0.323603 17.4086 -12.042 1.30072 -6.89111 0.0345318 0.956531 -3.29798 -0.706678 -2.30113 -6.721 -0.619355 2.73155 10.9014 -2.09631 -10.2501 -5.77386 -13.8834 3.18367 -10.7292 3.75049 -0.932672 5.29819 -1.11045 -0.925575 5.29817 -1.11145 10.3999 -4.00986 -8.69073 -31.1905 2.1656 1.03056 -53.861 31.2505 9.88648 13.2348 -7.40644 -38.1712 13.4231 0.702282 -5.37961 1.59028e-015 6.36111e-015 3.18055e-015 -7.06225e-031 6.36111e-015 6.36111e-015 10.1258 11.17 23.7335 62.0813 -46.8404 47.6372 -46.4566 -2.13064 95.0761 -26.3159 -8.98718 0.671654 6.36111e-015 -3.18055e-015 -6.36111e-015 6.36111e-015 -9.54167e-015 -4.77083e-015 -11.3699 6.43101 -2.46073 
33.4055 95.5475 -31.2823 -2.15354 3.59493 12.0688 -0.301676 2.62235 -0.828595 8.18293 -13.9422 6.70598 -0.377992 15.5216 -6.83353 0.655949 -6.89349 0.0360306 0.686836 -2.96199 -0.388267 -2.73058 -6.77154 -0.0238998 1.88598 10.0215 -1.67977 -8.73241 -5.82391 -9.23798 3.07936 -10.3685 3.55738 -0.567933 5.24845 -1.65317 -0.567395 5.24843 -1.64943 6.46032 -2.68879 -5.82874 -28.3821 2.33711 0.176337 -57.1684 31.8802 14.1411 13.5241 -6.92444 -36.0455 12.0389 0.340386 -6.14995 -3.18055e-015 -3.18055e-015 3.18055e-015 -4.77083e-015 0 3.18055e-015 10.0434 9.55925 25.8422 56.5501 -40.7791 41.5763 -47.8956 -0.847747 93.2592 -26.5232 -9.58626 0.634126 -8.82781e-032 3.18055e-015 1.59028e-015 -0 0 1.59028e-015 -8.85063 6.13023 -1.4528 
33.1619 95.657 -31.641 -2.69884 4.089 5.05148 0.060433 2.75182 -0.437575 9.49858 -13.0764 8.16909 -1.43424 15.5239 -1.57008 0.316779 -7.54908 0.044625 0.408024 -2.76169 -0.0771443 -1.9629 -8.33112 2.22726 1.00326 9.02129 -0.921262 -7.30952 -5.2963 -5.57272 2.90686 -9.58739 2.96848 0.142163 5.50328 -0.879146 0.142209 5.50337 -0.879415 2.05565 -6.97774 -3.43731 -25.9501 7.37542 0.918645 -57.0643 35.4654 12.6339 15.091 -4.22294 -30.671 8.12456 0.0867764 -6.97478 3.18055e-015 -3.18055e-015 -0 4.77083e-015 -3.18056e-015 -0 11.9002 13.2942 24.8067 51.6022 -34.7378 41.1358 -47.5288 1.58432 90.1107 -25.9193 -11.121 1.14124 9.54166e-015 -3.18055e-015 -0 9.54166e-015 0 -0 -5.26769 8.79708 -1.16904 
33.1657 95.7462 -31.6546 -2.56875 3.8048 -0.0362916 0.239988 2.75858 0.147779 9.44674 -11.0594 8.6301 -1.70442 14.5413 2.45085 -0.202349 -7.77111 0.0492639 0.403471 -2.62923 -0.0808759 -2.07215 -8.5748 1.84783 0.440641 8.5827 0.397035 -6.18627 -5.30477 -2.26397 2.70366 -9.03077 2.83149 0.476219 5.51754 0.276674 0.474602 5.51755 0.281073 0.953646 -7.09898 -3.39974 -26.341 8.09333 -0.658447 -56.5741 39.6607 12.003 16.3148 -1.93541 -26.4417 5.32572 0.440788 -5.78832 -3.53112e-031 6.36111e-015 3.18055e-015 1.59028e-015 3.18056e-015 1.59028e-015 11.8175 13.2807 25.7531 43.6766 -25.5645 37.9284 -48.424 1.63771 82.5321 -26.2238 -8.99248 2.66347 -3.18055e-015 0 -0 -0 0 3.18055e-015 -3.83568 8.44855 -1.90468 
33.287 95.8775 -31.3995 -2.17203 3.07896 -2.35872 0.26025 2.76193 0.220565 8.45163 -8.69262 9.38982 -0.784017 12.5503 3.80328 -1.05465 -7.34973 0.0518067 0.412971 -2.35654 -0.183842 -2.61726 -7.7293 0.331704 0.158939 7.9482 0.262433 -5.01878 -5.54775 1.13887 2.51391 -8.52855 2.74224 0.509327 5.5247 0.433526 0.510206 5.5247 0.43142 1.15541 -7.37086 -3.88837 -26.954 8.35592 -0.915575 -55.9139 42.0021 10.8043 16.7506 0.0670496 -23.6141 5.97595 1.22263 -4.9857 -1.59028e-015 3.18055e-015 -1.59028e-015 -1.59028e-015 3.18056e-015 -1.59028e-015 12.4102 14.2093 27.2967 37.5268 -18.6207 33.744 -49.0145 2.04933 77.9397 -25.0198 -8.20219 3.14623 -1.27222e-014 0 -0 -9.54166e-015 3.18056e-015 3.18055e-015 -3.60063 8.65712 -2.33741 
